<?xml version="1.0" standalone="no"?>
<!DOCTYPE svg PUBLIC "-//W3C//DTD SVG 20010904//EN"
  "http://www.w3.org/TR/2001/REC-SVG-20010904/DTD/svg10.dtd">
<svg width="16" height="16">
  <circle cx="0" cy="0" r="1" fill="none"/>
  <circle cx="1" cy="0" r="1" fill="none"/>
  <circle cx="2" cy="0" r="1" fill="none"/>
  <circle cx="3" cy="0" r="1" fill="none"/>
  <circle cx="4" cy="0" r="1" fill="none"/>
  <circle cx="5" cy="0" r="1" fill="none"/>
  <circle cx="6" cy="0" r="1" fill="none"/>
  <circle cx="7" cy="0" r="1" fill="none"/>
  <circle cx="8" cy="0" r="1" fill="none"/>
  <circle cx="9" cy="0" r="1" fill="none"/>
  <circle cx="10" cy="0" r="1" fill="none"/>
  <circle cx="11" cy="0" r="1" fill="none"/>
  <circle cx="12" cy="0" r="1" fill="none"/>
  <circle cx="13" cy="0" r="1" fill="none"/>
  <circle cx="14" cy="0" r="1" fill="none"/>
  <circle cx="15" cy="0" r="1" fill="none"/>
  <circle cx="0" cy="1" r="1" fill="none"/>
  <circle cx="1" cy="1" r="1" fill="none"/>
  <circle cx="2" cy="1" r="1" fill="none"/>
  <circle cx="3" cy="1" r="1" fill="none"/>
  <circle cx="4" cy="1" r="1" fill="none"/>
  <circle cx="5" cy="1" r="1" fill="silver"/>
  <circle cx="6" cy="1" r="1" fill="rgba(202,202,202,1)"/>
  <circle cx="7" cy="1" r="1" fill="rgba(172,172,172,1)"/>
  <circle cx="8" cy="1" r="1" fill="grey83"/>
  <circle cx="9" cy="1" r="1" fill="rgba(187,187,187,1)"/>
  <circle cx="10" cy="1" r="1" fill="rgba(197,197,197,1)"/>
  <circle cx="11" cy="1" r="1" fill="grey80"/>
  <circle cx="12" cy="1" r="1" fill="none"/>
  <circle cx="13" cy="1" r="1" fill="none"/>
  <circle cx="14" cy="1" r="1" fill="none"/>
  <circle cx="15" cy="1" r="1" fill="none"/>
  <circle cx="0" cy="2" r="1" fill="none"/>
  <circle cx="1" cy="2" r="1" fill="none"/>
  <circle cx="2" cy="2" r="1" fill="none"/>
  <circle cx="3" cy="2" r="1" fill="rgba(193,193,193,1)"/>
  <circle cx="4" cy="2" r="1" fill="rgba(183,183,183,1)"/>
  <circle cx="5" cy="2" r="1" fill="rgba(205,205,205,1)"/>
  <circle cx="6" cy="2" r="1" fill="rgba(177,177,177,1)"/>
  <circle cx="7" cy="2" r="1" fill="grey81"/>
  <circle cx="8" cy="2" r="1" fill="rgba(172,172,172,1)"/>
  <circle cx="9" cy="2" r="1" fill="grey76"/>
  <circle cx="10" cy="2" r="1" fill="LightGray"/>
  <circle cx="11" cy="2" r="1" fill="rgba(174,174,174,1)"/>
  <circle cx="12" cy="2" r="1" fill="rgba(183,183,183,1)"/>
  <circle cx="13" cy="2" r="1" fill="rgba(218,218,218,1)"/>
  <circle cx="14" cy="2" r="1" fill="none"/>
  <circle cx="15" cy="2" r="1" fill="none"/>
  <circle cx="0" cy="3" r="1" fill="none"/>
  <circle cx="1" cy="3" r="1" fill="none"/>
  <circle cx="2" cy="3" r="1" fill="rgba(215,215,215,1)"/>
  <circle cx="3" cy="3" r="1" fill="grey72"/>
  <circle cx="4" cy="3" r="1" fill="rgba(195,195,195,1)"/>
  <circle cx="5" cy="3" r="1" fill="rgba(180,180,180,1)"/>
  <circle cx="6" cy="3" r="1" fill="grey64"/>
  <circle cx="7" cy="3" r="1" fill="rgba(160,160,160,1)"/>
  <circle cx="8" cy="3" r="1" fill="rgba(159,159,159,1)"/>
  <circle cx="9" cy="3" r="1" fill="rgba(147,147,147,1)"/>
  <circle cx="10" cy="3" r="1" fill="rgba(146,146,146,1)"/>
  <circle cx="11" cy="3" r="1" fill="grey72"/>
  <circle cx="12" cy="3" r="1" fill="rgba(216,216,216,1)"/>
  <circle cx="13" cy="3" r="1" fill="grey67"/>
  <circle cx="14" cy="3" r="1" fill="none"/>
  <circle cx="15" cy="3" r="1" fill="none"/>
  <circle cx="0" cy="4" r="1" fill="none"/>
  <circle cx="1" cy="4" r="1" fill="none"/>
  <circle cx="2" cy="4" r="1" fill="rgba(202,202,202,1)"/>
  <circle cx="3" cy="4" r="1" fill="rgba(155,155,155,1)"/>
  <circle cx="4" cy="4" r="1" fill="grey68"/>
  <circle cx="5" cy="4" r="1" fill="grey56"/>
  <circle cx="6" cy="4" r="1" fill="rgba(137,137,137,1)"/>
  <circle cx="7" cy="4" r="1" fill="rgba(172,172,172,1)"/>
  <circle cx="8" cy="4" r="1" fill="grey77"/>
  <circle cx="9" cy="4" r="1" fill="fractal"/>
  <circle cx="10" cy="4" r="1" fill="grey58"/>
  <circle cx="11" cy="4" r="1" fill="rgba(155,155,155,1)"/>
  <circle cx="12" cy="4" r="1" fill="rgba(144,144,144,1)"/>
  <circle cx="13" cy="4" r="1" fill="rgba(131,131,131,1)"/>
  <circle cx="14" cy="4" r="1" fill="grey79"/>
  <circle cx="15" cy="4" r="1" fill="none"/>
  <circle cx="0" cy="5" r="1" fill="none"/>
  <circle cx="1" cy="5" r="1" fill="LightGray"/>
  <circle cx="2" cy="5" r="1" fill="grey75"/>
  <circle cx="3" cy="5" r="1" fill="rgba(182,182,182,1)"/>
  <circle cx="4" cy="5" r="1" fill="rgba(151,151,151,1)"/>
  <circle cx="5" cy="5" r="1" fill="grey60"/>
  <circle cx="6" cy="5" r="1" fill="rgba(144,144,144,1)"/>
  <circle cx="7" cy="5" r="1" fill="gray"/>
  <circle cx="8" cy="5" r="1" fill="grey55"/>
  <circle cx="9" cy="5" r="1" fill="rgba(137,137,137,1)"/>
  <circle cx="10" cy="5" r="1" fill="rgba(134,134,134,1)"/>
  <circle cx="11" cy="5" r="1" fill="rgba(160,160,160,1)"/>
  <circle cx="12" cy="5" r="1" fill="DarkGray"/>
  <circle cx="13" cy="5" r="1" fill="grey83"/>
  <circle cx="14" cy="5" r="1" fill="rgba(164,164,164,1)"/>
  <circle cx="15" cy="5" r="1" fill="none"/>
  <circle cx="0" cy="6" r="1" fill="none"/>
  <circle cx="1" cy="6" r="1" fill="grey74"/>
  <circle cx="2" cy="6" r="1" fill="rgba(155,155,155,1)"/>
  <circle cx="3" cy="6" r="1" fill="rgba(165,165,165,1)"/>
  <circle cx="4" cy="6" r="1" fill="grey56"/>
  <circle cx="5" cy="6" r="1" fill="rgba(132,132,132,1)"/>
  <circle cx="6" cy="6" r="1" fill="rgba(118,118,118,1)"/>
  <circle cx="7" cy="6" r="1" fill="rgba(146,146,146,1)"/>
  <circle cx="8" cy="6" r="1" fill="rgba(159,159,159,1)"/>
  <circle cx="9" cy="6" r="1" fill="rgba(111,111,111,1)"/>
  <circle cx="10" cy="6" r="1" fill="rgba(121,121,121,1)"/>
  <circle cx="11" cy="6" r="1" fill="grey53"/>
  <circle cx="12" cy="6" r="1" fill="fractal"/>
  <circle cx="13" cy="6" r="1" fill="grey48"/>
  <circle cx="14" cy="6" r="1" fill="rgba(149,149,149,1)"/>
  <circle cx="15" cy="6" r="1" fill="none"/>
  <circle cx="0" cy="7" r="1" fill="none"/>
  <circle cx="1" cy="7" r="1" fill="rgba(178,178,178,1)"/>
  <circle cx="2" cy="7" r="1" fill="rgba(221,221,221,1)"/>
  <circle cx="3" cy="7" r="1" fill="rgba(131,131,131,1)"/>
  <circle cx="4" cy="7" r="1" fill="grey52"/>
  <circle cx="5" cy="7" r="1" fill="grey45"/>
  <circle cx="6" cy="7" r="1" fill="rgba(129,129,129,1)"/>
  <circle cx="7" cy="7" r="1" fill="grey97"/>
  <circle cx="8" cy="7" r="1" fill="rgba(254,254,254,1)"/>
  <circle cx="9" cy="7" r="1" fill="grey47"/>
  <circle cx="10" cy="7" r="1" fill="rgba(93,93,93,1)"/>
  <circle cx="11" cy="7" r="1" fill="rgba(121,121,121,1)"/>
  <circle cx="12" cy="7" r="1" fill="rgba(103,103,103,1)"/>
  <circle cx="13" cy="7" r="1" fill="rgba(180,180,180,1)"/>
  <circle cx="14" cy="7" r="1" fill="grey65"/>
  <circle cx="15" cy="7" r="1" fill="none"/>
  <circle cx="0" cy="8" r="1" fill="none"/>
  <circle cx="1" cy="8" r="1" fill="grey68"/>
  <circle cx="2" cy="8" r="1" fill="grey59"/>
  <circle cx="3" cy="8" r="1" fill="rgba(149,149,149,1)"/>
  <circle cx="4" cy="8" r="1" fill="grey58"/>
  <circle cx="5" cy="8" r="1" fill="rgba(113,113,113,1)"/>
  <circle cx="6" cy="8" r="1" fill="grey42"/>
  <circle cx="7" cy="8" r="1" fill="rgba(223,223,223,1)"/>
  <circle cx="8" cy="8" r="1" fill="rgba(216,216,216,1)"/>
  <circle cx="9" cy="8" r="1" fill="grey42"/>
  <circle cx="10" cy="8" r="1" fill="grey37"/>
  <circle cx="11" cy="8" r="1" fill="fractal"/>
  <circle cx="12" cy="8" r="1" fill="grey58"/>
  <circle cx="13" cy="8" r="1" fill="gray"/>
  <circle cx="14" cy="8" r="1" fill="rgba(146,146,146,1)"/>
  <circle cx="15" cy="8" r="1" fill="none"/>
  <circle cx="0" cy="9" r="1" fill="none"/>
  <circle cx="1" cy="9" r="1" fill="rgba(180,180,180,1)"/>
  <circle cx="2" cy="9" r="1" fill="grey88"/>
  <circle cx="3" cy="9" r="1" fill="rgba(164,164,164,1)"/>
  <circle cx="4" cy="9" r="1" fill="rgba(157,157,157,1)"/>
  <circle cx="5" cy="9" r="1" fill="fractal"/>
  <circle cx="6" cy="9" r="1" fill="rgba(109,109,109,1)"/>
  <circle cx="7" cy="9" r="1" fill="rgba(118,118,118,1)"/>
  <circle cx="8" cy="9" r="1" fill="rgba(96,96,96,1)"/>
  <circle cx="9" cy="9" r="1" fill="rgba(90,90,90,1)"/>
  <circle cx="10" cy="9" r="1" fill="rgba(131,131,131,1)"/>
  <circle cx="11" cy="9" r="1" fill="rgba(136,136,136,1)"/>
  <circle cx="12" cy="9" r="1" fill="rgba(123,123,123,1)"/>
  <circle cx="13" cy="9" r="1" fill="rgba(216,216,216,1)"/>
  <circle cx="14" cy="9" r="1" fill="grey66"/>
  <circle cx="15" cy="9" r="1" fill="none"/>
  <circle cx="0" cy="10" r="1" fill="none"/>
  <circle cx="1" cy="10" r="1" fill="rgba(223,223,223,1)"/>
  <circle cx="2" cy="10" r="1" fill="grey64"/>
  <circle cx="3" cy="10" r="1" fill="grey60"/>
  <circle cx="4" cy="10" r="1" fill="gray"/>
  <circle cx="5" cy="10" r="1" fill="rgba(151,151,151,1)"/>
  <circle cx="6" cy="10" r="1" fill="rgba(131,131,131,1)"/>
  <circle cx="7" cy="10" r="1" fill="rgba(108,108,108,1)"/>
  <circle cx="8" cy="10" r="1" fill="rgba(101,101,101,1)"/>
  <circle cx="9" cy="10" r="1" fill="grey45"/>
  <circle cx="10" cy="10" r="1" fill="grey55"/>
  <circle cx="11" cy="10" r="1" fill="DimGray"/>
  <circle cx="12" cy="10" r="1" fill="rgba(151,151,151,1)"/>
  <circle cx="13" cy="10" r="1" fill="rgba(142,142,142,1)"/>
  <circle cx="14" cy="10" r="1" fill="rgba(170,170,170,1)"/>
  <circle cx="15" cy="10" r="1" fill="none"/>
  <circle cx="0" cy="11" r="1" fill="none"/>
  <circle cx="1" cy="11" r="1" fill="none"/>
  <circle cx="2" cy="11" r="1" fill="grey76"/>
  <circle cx="3" cy="11" r="1" fill="grey87"/>
  <circle cx="4" cy="11" r="1" fill="rgba(164,164,164,1)"/>
  <circle cx="5" cy="11" r="1" fill="grey48"/>
  <circle cx="6" cy="11" r="1" fill="grey64"/>
  <circle cx="7" cy="11" r="1" fill="grey43"/>
  <circle cx="8" cy="11" r="1" fill="rgba(124,124,124,1)"/>
  <circle cx="9" cy="11" r="1" fill="rgba(137,137,137,1)"/>
  <circle cx="10" cy="11" r="1" fill="rgba(124,124,124,1)"/>
  <circle cx="11" cy="11" r="1" fill="rgba(134,134,134,1)"/>
  <circle cx="12" cy="11" r="1" fill="rgba(206,206,206,1)"/>
  <circle cx="13" cy="11" r="1" fill="grey68"/>
  <circle cx="14" cy="11" r="1" fill="none"/>
  <circle cx="15" cy="11" r="1" fill="none"/>
  <circle cx="0" cy="12" r="1" fill="none"/>
  <circle cx="1" cy="12" r="1" fill="none"/>
  <circle cx="2" cy="12" r="1" fill="rgba(228,228,228,1)"/>
  <circle cx="3" cy="12" r="1" fill="grey61"/>
  <circle cx="4" cy="12" r="1" fill="rgba(182,182,182,1)"/>
  <circle cx="5" cy="12" r="1" fill="rgba(197,197,197,1)"/>
  <circle cx="6" cy="12" r="1" fill="rgba(146,146,146,1)"/>
  <circle cx="7" cy="12" r="1" fill="grey54"/>
  <circle cx="8" cy="12" r="1" fill="rgba(137,137,137,1)"/>
  <circle cx="9" cy="12" r="1" fill="grey69"/>
  <circle cx="10" cy="12" r="1" fill="rgba(159,159,159,1)"/>
  <circle cx="11" cy="12" r="1" fill="grey71"/>
  <circle cx="12" cy="12" r="1" fill="grey63"/>
  <circle cx="13" cy="12" r="1" fill="rgba(195,195,195,1)"/>
  <circle cx="14" cy="12" r="1" fill="none"/>
  <circle cx="15" cy="12" r="1" fill="none"/>
  <circle cx="0" cy="13" r="1" fill="none"/>
  <circle cx="1" cy="13" r="1" fill="none"/>
  <circle cx="2" cy="13" r="1" fill="none"/>
  <circle cx="3" cy="13" r="1" fill="rgba(195,195,195,1)"/>
  <circle cx="4" cy="13" r="1" fill="grey70"/>
  <circle cx="5" cy="13" r="1" fill="rgba(147,147,147,1)"/>
  <circle cx="6" cy="13" r="1" fill="silver"/>
  <circle cx="7" cy="13" r="1" fill="rgba(188,188,188,1)"/>
  <circle cx="8" cy="13" r="1" fill="grey63"/>
  <circle cx="9" cy="13" r="1" fill="rgba(193,193,193,1)"/>
  <circle cx="10" cy="13" r="1" fill="grey68"/>
  <circle cx="11" cy="13" r="1" fill="rgba(165,165,165,1)"/>
  <circle cx="12" cy="13" r="1" fill="none"/>
  <circle cx="13" cy="13" r="1" fill="none"/>
  <circle cx="14" cy="13" r="1" fill="none"/>
  <circle cx="15" cy="13" r="1" fill="none"/>
  <circle cx="0" cy="14" r="1" fill="none"/>
  <circle cx="1" cy="14" r="1" fill="none"/>
  <circle cx="2" cy="14" r="1" fill="none"/>
  <circle cx="3" cy="14" r="1" fill="none"/>
  <circle cx="4" cy="14" r="1" fill="none"/>
  <circle cx="5" cy="14" r="1" fill="rgba(203,203,203,1)"/>
  <circle cx="6" cy="14" r="1" fill="rgba(172,172,172,1)"/>
  <circle cx="7" cy="14" r="1" fill="rgba(170,170,170,1)"/>
  <circle cx="8" cy="14" r="1" fill="rgba(183,183,183,1)"/>
  <circle cx="9" cy="14" r="1" fill="rgba(174,174,174,1)"/>
  <circle cx="10" cy="14" r="1" fill="grey82"/>
  <circle cx="11" cy="14" r="1" fill="rgba(218,218,218,1)"/>
  <circle cx="12" cy="14" r="1" fill="none"/>
  <circle cx="13" cy="14" r="1" fill="none"/>
  <circle cx="14" cy="14" r="1" fill="none"/>
  <circle cx="15" cy="14" r="1" fill="none"/>
  <circle cx="0" cy="15" r="1" fill="none"/>
  <circle cx="1" cy="15" r="1" fill="none"/>
  <circle cx="2" cy="15" r="1" fill="none"/>
  <circle cx="3" cy="15" r="1" fill="none"/>
  <circle cx="4" cy="15" r="1" fill="none"/>
  <circle cx="5" cy="15" r="1" fill="none"/>
  <circle cx="6" cy="15" r="1" fill="none"/>
  <circle cx="7" cy="15" r="1" fill="none"/>
  <circle cx="8" cy="15" r="1" fill="none"/>
  <circle cx="9" cy="15" r="1" fill="none"/>
  <circle cx="10" cy="15" r="1" fill="none"/>
  <circle cx="11" cy="15" r="1" fill="none"/>
  <circle cx="12" cy="15" r="1" fill="none"/>
  <circle cx="13" cy="15" r="1" fill="none"/>
  <circle cx="14" cy="15" r="1" fill="none"/>
  <circle cx="15" cy="15" r="1" fill="none"/>
</svg>
